<svg width="206" height="75" viewBox="0 0 206 75" fill="none" xmlns="http://www.w3.org/2000/svg">
<path d="M88.9609 37.6875H92.5703C93.5703 37.6875 94.3438 37.4453 94.8906 36.9609C95.4375 36.4766 95.7109 35.7656 95.7109 34.8281C95.7109 34 95.4297 33.3438 94.8672 32.8594C94.3203 32.375 93.5469 32.1328 92.5469 32.1328H88.9609V37.6875ZM85.4688 48V29.1328H93.2031C95.1719 29.1328 96.6797 29.6484 97.7266 30.6797C98.7891 31.6953 99.3203 32.9844 99.3203 34.5469C99.3203 35.8438 99.0469 36.8906 98.5 37.6875C97.9531 38.4688 97.3125 39.0156 96.5781 39.3281C97.1406 39.7344 97.5469 40.1641 97.7969 40.6172C98.0469 41.0547 98.25 41.7422 98.4062 42.6797C98.7344 44.3984 99.4375 46.1719 100.516 48H96.625C95.8125 46.6562 95.1875 44.9688 94.75 42.9375C94.5781 42.1562 94.3359 41.5859 94.0234 41.2266C93.7266 40.8516 93.25 40.6641 92.5938 40.6641H88.9609V48H85.4688ZM101.453 41.0391C101.453 38.8047 102.062 37.0391 103.281 35.7422C104.516 34.4297 106.062 33.7734 107.922 33.7734C109.734 33.7734 111.242 34.4375 112.445 35.7656C113.664 37.0938 114.273 38.8281 114.273 40.9688C114.273 41.5469 114.258 41.9766 114.227 42.2578H104.852C104.852 43.2109 105.141 44.0312 105.719 44.7188C106.312 45.4062 107.117 45.75 108.133 45.75C108.852 45.75 109.484 45.5703 110.031 45.2109C110.594 44.8359 111.016 44.3672 111.297 43.8047L114.086 44.7891C113.648 45.8203 112.906 46.6875 111.859 47.3906C110.828 48.0781 109.555 48.4219 108.039 48.4219C106.102 48.4219 104.516 47.7578 103.281 46.4297C102.062 45.0859 101.453 43.2891 101.453 41.0391ZM104.875 39.9375H110.875C110.875 38.9688 110.609 38.1406 110.078 37.4531C109.562 36.7656 108.844 36.4219 107.922 36.4219C106.984 36.4219 106.242 36.7734 105.695 37.4766C105.164 38.1641 104.891 38.9844 104.875 39.9375ZM116.688 48V28.5234H119.992V35.4375C120.898 34.3281 122.016 33.7734 123.344 33.7734C125.031 33.7734 126.43 34.4219 127.539 35.7188C128.664 37.0156 129.227 38.8047 129.227 41.0859C129.227 42.3672 129.047 43.5 128.688 44.4844C128.328 45.4688 127.852 46.2422 127.258 46.8047C126.68 47.3516 126.062 47.7578 125.406 48.0234C124.75 48.2891 124.078 48.4219 123.391 48.4219C122.625 48.4219 121.922 48.2266 121.281 47.8359C120.656 47.4297 120.203 46.9609 119.922 46.4297V48H116.688ZM119.969 41.0859C119.969 42.4766 120.227 43.5703 120.742 44.3672C121.273 45.1641 121.984 45.5625 122.875 45.5625C123.719 45.5625 124.414 45.1875 124.961 44.4375C125.508 43.6719 125.781 42.5547 125.781 41.0859C125.781 39.7109 125.523 38.625 125.008 37.8281C124.492 37.0312 123.781 36.6328 122.875 36.6328C121.953 36.6328 121.234 37.0469 120.719 37.875C120.219 38.6875 119.969 39.7578 119.969 41.0859ZM131.688 48V28.5234H134.992V35.4375C135.898 34.3281 137.016 33.7734 138.344 33.7734C140.031 33.7734 141.43 34.4219 142.539 35.7188C143.664 37.0156 144.227 38.8047 144.227 41.0859C144.227 42.3672 144.047 43.5 143.688 44.4844C143.328 45.4688 142.852 46.2422 142.258 46.8047C141.68 47.3516 141.062 47.7578 140.406 48.0234C139.75 48.2891 139.078 48.4219 138.391 48.4219C137.625 48.4219 136.922 48.2266 136.281 47.8359C135.656 47.4297 135.203 46.9609 134.922 46.4297V48H131.688ZM134.969 41.0859C134.969 42.4766 135.227 43.5703 135.742 44.3672C136.273 45.1641 136.984 45.5625 137.875 45.5625C138.719 45.5625 139.414 45.1875 139.961 44.4375C140.508 43.6719 140.781 42.5547 140.781 41.0859C140.781 39.7109 140.523 38.625 140.008 37.8281C139.492 37.0312 138.781 36.6328 137.875 36.6328C136.953 36.6328 136.234 37.0469 135.719 37.875C135.219 38.6875 134.969 39.7578 134.969 41.0859ZM151.117 32.1328V29.1328H165.297V32.1328H159.953V48H156.461V32.1328H151.117ZM165.18 41.0391C165.18 38.8047 165.789 37.0391 167.008 35.7422C168.242 34.4297 169.789 33.7734 171.648 33.7734C173.461 33.7734 174.969 34.4375 176.172 35.7656C177.391 37.0938 178 38.8281 178 40.9688C178 41.5469 177.984 41.9766 177.953 42.2578H168.578C168.578 43.2109 168.867 44.0312 169.445 44.7188C170.039 45.4062 170.844 45.75 171.859 45.75C172.578 45.75 173.211 45.5703 173.758 45.2109C174.32 44.8359 174.742 44.3672 175.023 43.8047L177.812 44.7891C177.375 45.8203 176.633 46.6875 175.586 47.3906C174.555 48.0781 173.281 48.4219 171.766 48.4219C169.828 48.4219 168.242 47.7578 167.008 46.4297C165.789 45.0859 165.18 43.2891 165.18 41.0391ZM168.602 39.9375H174.602C174.602 38.9688 174.336 38.1406 173.805 37.4531C173.289 36.7656 172.57 36.4219 171.648 36.4219C170.711 36.4219 169.969 36.7734 169.422 37.4766C168.891 38.1641 168.617 38.9844 168.602 39.9375ZM179.523 41.1094C179.523 38.8594 180.125 37.0781 181.328 35.7656C182.531 34.4375 184.078 33.7734 185.969 33.7734C187.391 33.7734 188.578 34.2109 189.531 35.0859C190.484 35.9453 191.078 36.9219 191.312 38.0156L188.477 38.7891C188.305 38.2109 188.008 37.7109 187.586 37.2891C187.164 36.8516 186.641 36.6328 186.016 36.6328C185.031 36.6328 184.273 37.0625 183.742 37.9219C183.227 38.7656 182.969 39.8281 182.969 41.1094C182.969 42.5312 183.258 43.6328 183.836 44.4141C184.414 45.1797 185.141 45.5625 186.016 45.5625C186.703 45.5625 187.297 45.3281 187.797 44.8594C188.297 44.375 188.633 43.8281 188.805 43.2188L191.641 44.0156C191.359 45.1719 190.695 46.1953 189.648 47.0859C188.602 47.9766 187.375 48.4219 185.969 48.4219C184.062 48.4219 182.508 47.7578 181.305 46.4297C180.117 45.1016 179.523 43.3281 179.523 41.1094ZM193.75 48V28.5234H197.055V35.3438H197.125C197.5 34.875 197.984 34.5 198.578 34.2188C199.188 33.9219 199.828 33.7734 200.5 33.7734C201.812 33.7734 202.914 34.2031 203.805 35.0625C204.695 35.9062 205.141 37.2656 205.141 39.1406V48H201.812V39.5156C201.812 37.5938 201.164 36.6328 199.867 36.6328C199.055 36.6328 198.383 36.9844 197.852 37.6875C197.32 38.375 197.055 39.2031 197.055 40.1719V48H193.75Z" fill="black" fill-opacity="0.7"/>
<circle cx="37.5" cy="37.5" r="35" stroke="#EB5757" stroke-width="5"/>
<path d="M24.7305 48V27.293H29.5469V29.2617C29.9688 28.5586 30.5898 27.9492 31.4102 27.4336C32.2539 26.918 33.2266 26.6602 34.3281 26.6602C35.4062 26.6602 36.2852 26.7891 36.9648 27.0469V31.6523C36.1445 31.3945 35.2773 31.2656 34.3633 31.2656C32.8633 31.2656 31.7148 31.8516 30.918 33.0234C30.1445 34.1953 29.7578 35.7656 29.7578 37.7344V48H24.7305ZM37.9141 31.5469V27.293H41.0078V21.2812H46V27.293H50.5V31.5469H46V41.1797C46 42.8672 46.7383 43.7109 48.2148 43.7109H50.5352V48H47.582C45.5664 48 43.9609 47.4844 42.7656 46.4531C41.5938 45.4219 41.0078 43.7695 41.0078 41.4961V31.5469H37.9141Z" fill="#EB5757"/>
</svg>
