<svg width="800" height="450" viewBox="0 0 800 450" xmlns="http://www.w3.org/2000/svg">
  <!-- Background: Deep dark blue from the logo -->
  <rect width="800" height="450" fill="#20203A"/>
  
  <!-- Purple abstract wave shapes (top left) -->
  <path d="M0,0 L350,0 C300,150 150,200 0,300 Z" fill="#CB5DF1" opacity="0.15" />
  <path d="M0,0 L250,0 C200,100 100,150 0,200 Z" fill="#a441c9" opacity="0.4" />
  <path d="M0,0 L150,0 C120,60 60,100 0,120 Z" fill="#CB5DF1" opacity="0.8" />
  
  <!-- Purple floating circles -->
  <circle cx="650" cy="100" r="40" fill="#CB5DF1" opacity="0.2" />
  <circle cx="720" cy="60" r="15" fill="#CB5DF1" opacity="0.5" />
  <circle cx="150" cy="380" r="60" fill="#a441c9" opacity="0.15" />
  
  <!-- Purple abstract wave shapes (bottom right) -->
  <path d="M800,450 L450,450 C500,300 650,250 800,150 Z" fill="#CB5DF1" opacity="0.15" />
  <path d="M800,450 L550,450 C600,350 700,300 800,250 Z" fill="#a441c9" opacity="0.4" />
  <path d="M800,450 L650,450 C680,390 740,350 800,330 Z" fill="#CB5DF1" opacity="0.8" />

  <!-- Diagonal tech lines -->
  <line x1="0" y1="450" x2="800" y2="0" stroke="#CB5DF1" stroke-width="2" opacity="0.1" />
  <line x1="200" y1="450" x2="800" y2="100" stroke="#CB5DF1" stroke-width="1" opacity="0.15" />
  
  <!-- Truuth Logo scaled up and centered -->
  <!-- Since background is dark #20203A, we need to change the logo's dark text to white so it's readable! -->
  <g transform="translate(218, 177) scale(4)">
    <path d="M19.4762 24H14.6152V11.3548C14.6152 5.16128 19.4762 0 25.3093 0V5.16128C22.1496 5.16128 19.4762 8 19.4762 11.3548V24Z" fill="#FFFFFF"/>
    <path d="M13.2865 11.6129V6.45161H7.48844V0H2.65674V12.6452C2.65674 18.8387 7.48844 24 13.2865 24V18.8387C10.1459 18.8387 7.48844 16 7.48844 12.6452V11.6129H13.2865Z" fill="#FFFFFF"/>
    <path d="M70.4217 11.6129V6.45161H64.6237V0H59.792V12.6452C59.792 18.8387 64.6237 24 70.4217 24V18.8387C67.2812 18.8387 64.6237 16 64.6237 12.6452V11.6129H70.4217Z" fill="#FFFFFF"/>
    <path d="M79.7228 6.96774C78.6941 6.96774 77.9227 7.22581 76.894 7.48388V0H71.7505V14.9678V24H76.894V14.9678C76.894 13.4194 78.1798 12.129 79.7228 12.129C81.2659 12.129 82.5517 13.4194 82.5517 14.9678V24H87.6951V14.9678C87.6951 10.5806 84.0947 6.96774 79.7228 6.96774Z" fill="#FFFFFF"/>
    
    <!-- Purple symbol elements from the logo -->
    <path d="M53.118 7.03076V15.979C53.118 17.5129 51.8372 18.7912 50.3004 18.7912C48.7635 18.7912 47.4827 17.5129 47.4827 15.979V7.03076H42.3599V15.979C42.3599 20.3252 45.9459 23.9045 50.3004 23.9045C54.6549 23.9045 58.241 20.3252 58.241 15.979V7.03076H53.118Z" fill="#CB5DF1"/>
    <path d="M35.9134 7.03076V15.979C35.9134 17.5129 34.6326 18.7912 33.0958 18.7912C31.5589 18.7912 30.2782 17.5129 30.2782 15.979V7.03076H25.1553V15.979C25.1553 20.3252 28.7414 23.9045 33.0958 23.9045C37.4503 23.9045 41.0364 20.3252 41.0364 15.979V7.03076H35.9134Z" fill="#CB5DF1"/>
  </g>
</svg>
